<svg width="50" height="50" viewBox="0 0 50 50" fill="none" xmlns="http://www.w3.org/2000/svg">
<path d="M24.9993 34.9239C22.4753 34.9239 20.4219 32.8705 20.4219 30.3465C20.4219 27.8225 22.4753 25.769 24.9993 25.769C27.5233 25.769 29.5768 27.8225 29.5768 30.3465C29.5768 32.8705 27.5233 34.9239 24.9993 34.9239ZM24.9993 27.7223C23.5523 27.7223 22.375 28.8995 22.375 30.3466C22.375 31.7936 23.5523 32.9709 24.9993 32.9709C26.4463 32.9709 27.6236 31.7937 27.6236 30.3466C27.6236 28.8995 26.4463 27.7223 24.9993 27.7223Z" fill="#1A1A1A"/>
<path d="M30.9169 24.377C30.244 24.3955 29.7382 23.6419 30.0145 23.0264C30.4326 22.0486 31.8813 22.3376 31.8934 23.4004C31.9032 23.9248 31.441 24.3858 30.9169 24.377Z" fill="#1A1A1A"/>
<path d="M46.8722 3.23936C45.4884 3.23936 44.3116 4.14268 43.9005 5.39063H29.1985C28.553 3.7001 26.9145 2.49609 24.9998 2.49609C23.0853 2.49609 21.4467 3.7 20.8012 5.39063H6.09951C5.68838 4.14268 4.51162 3.23936 3.12783 3.23936C1.40313 3.23936 0 4.64248 0 6.36719C0 8.0918 1.40313 9.49502 3.12783 9.49502C4.51162 9.49502 5.68838 8.5917 6.09951 7.34375H11.6642C11.0286 7.76221 10.4282 8.24443 9.87129 8.78701C7.67354 10.9283 6.39707 13.7696 6.26406 16.8058C4.81289 17.2251 3.74853 18.5656 3.74853 20.1502C3.74853 22.0693 5.30986 23.6308 7.229 23.6308C9.14814 23.6308 10.7096 22.0694 10.7096 20.1502C10.7096 18.5748 9.65752 17.2406 8.21904 16.8131C8.49238 11.57 12.9178 7.34375 18.1937 7.34375H20.5217C20.7034 9.65527 22.6425 11.4806 24.9999 11.4806C27.3573 11.4806 29.2964 9.65527 29.4782 7.34375H31.8062C37.0769 7.34375 41.5065 11.5714 41.7806 16.8116C40.3396 17.2375 39.2851 18.5729 39.2851 20.1502C39.2851 22.0693 40.8464 23.6308 42.7656 23.6308C44.6848 23.6308 46.2462 22.0694 46.2462 20.1502C46.2462 18.5676 45.1844 17.2283 43.7357 16.8072C43.6029 13.7658 42.3224 10.9198 40.119 8.77773C39.5647 8.23887 38.9675 7.75977 38.3354 7.34365H43.9005C44.3116 8.5916 45.4884 9.49492 46.8722 9.49492C48.5969 9.49502 50 8.0918 50 6.36719C50 4.64248 48.5969 3.23936 46.8722 3.23936ZM3.12783 7.54189C2.48008 7.54189 1.95312 7.01494 1.95312 6.36719C1.95312 5.71943 2.48008 5.19248 3.12783 5.19248C3.77559 5.19248 4.30254 5.71943 4.30254 6.36719C4.30254 7.01494 3.77559 7.54189 3.12783 7.54189ZM8.75644 20.1502C8.75644 20.9924 8.07129 21.6776 7.229 21.6776C6.38682 21.6776 5.70166 20.9925 5.70166 20.1502C5.70166 19.3079 6.38682 18.6228 7.229 18.6228C8.07129 18.6228 8.75644 19.3079 8.75644 20.1502ZM24.9998 9.52744C23.5998 9.52744 22.4607 8.38838 22.4607 6.98838C22.4607 5.58828 23.5998 4.44932 24.9998 4.44932C26.3999 4.44932 27.539 5.58838 27.539 6.98838C27.539 8.38838 26.3999 9.52744 24.9998 9.52744ZM44.293 20.1502C44.293 20.9924 43.6077 21.6776 42.7655 21.6776C41.9233 21.6776 41.2381 20.9925 41.2381 20.1502C41.2381 19.3079 41.9233 18.6228 42.7655 18.6228C43.6077 18.6228 44.293 19.3079 44.293 20.1502ZM46.8722 7.54189C46.2244 7.54189 45.6976 7.01494 45.6976 6.36719C45.6976 5.71943 46.2244 5.19248 46.8722 5.19248C47.5199 5.19248 48.0469 5.71943 48.0469 6.36719C48.0469 7.01494 47.5198 7.54189 46.8722 7.54189Z" fill="#1A1A1A"/>
<path d="M33.5913 26.2796C33.3339 25.8056 32.7411 25.6302 32.267 25.8876C31.7931 26.145 31.6176 26.7379 31.875 27.2119L33.0398 29.3562C33.5898 30.3686 33.6012 31.5834 33.0704 32.606L30.2868 37.9688H19.7112L16.9274 32.6061C16.3967 31.5835 16.4081 30.3686 16.958 29.3562L24.0225 16.3516V22.3689C24.0225 22.9083 24.4597 23.3455 24.999 23.3455C25.5383 23.3455 25.9756 22.9083 25.9756 22.3689V16.3517L27.9466 19.9799C28.204 20.4539 28.7968 20.6293 29.2709 20.3719C29.7448 20.1145 29.9203 19.5215 29.6629 19.0476L26.9226 14.0031C26.7517 13.6886 26.4225 13.4927 26.0644 13.4927H23.9338C23.5759 13.4927 23.2465 13.6885 23.0757 14.0031L15.2418 28.4239C14.3819 30.007 14.3641 31.9068 15.194 33.5058L17.5108 37.9689H17.2391C16.6997 37.9689 16.2625 38.4062 16.2625 38.9455C16.2625 39.4849 16.6997 39.9221 17.2391 39.9221H17.8667L16.2756 46.2906C16.2026 46.5823 16.2683 46.8914 16.4533 47.1284C16.6384 47.3654 16.9224 47.5039 17.223 47.5039H32.7749C33.0756 47.5039 33.3595 47.3654 33.5446 47.1284C33.7297 46.8914 33.7952 46.5824 33.7224 46.2906L32.1312 39.9221H32.7591C33.2983 39.9221 33.7356 39.4849 33.7356 38.9455C33.7356 38.4062 33.2983 37.9689 32.7591 37.9689H32.4874L34.8041 33.5058C35.6342 31.9067 35.6163 30.0069 34.7563 28.4237L33.5913 26.2796ZM31.5242 45.5509H18.4734L19.8798 39.9222H30.1179L31.5242 45.5509Z" fill="#1A1A1A"/>
</svg>
