<svg width="50" height="50" viewBox="0 0 50 50" fill="none" xmlns="http://www.w3.org/2000/svg">
<g clip-path="url(#clip0)">
<path d="M34.8184 7.12085C33.7145 7.12085 32.8164 6.2228 32.8164 5.1189C32.8164 4.01499 33.7145 3.11694 34.8184 3.11694C35.9223 3.11694 36.8203 4.01499 36.8203 5.1189C36.8203 6.2228 35.9222 7.12085 34.8184 7.12085ZM34.8184 4.58179C34.5222 4.58179 34.2812 4.8227 34.2812 5.1189C34.2812 5.41509 34.5222 5.65601 34.8184 5.65601C35.1146 5.65601 35.3555 5.41509 35.3555 5.1189C35.3555 4.8227 35.1145 4.58179 34.8184 4.58179Z" fill="#1A1A1A"/>
<path d="M35.6653 0H14.3347C12.0037 0 10.1074 1.89629 10.1074 4.22725V7.87344C10.1074 8.27793 10.4354 8.60586 10.8398 8.60586C11.2443 8.60586 11.5723 8.27793 11.5723 7.87344V4.22725C11.5723 2.704 12.8114 1.46484 14.3347 1.46484H35.6654C37.1886 1.46484 38.4279 2.704 38.4279 4.22725V41.8457H11.5724V11.2914C11.5724 10.8869 11.2444 10.559 10.8399 10.559C10.4354 10.559 10.1075 10.8869 10.1075 11.2914V42.5781V45.7728C10.1075 48.1036 12.0038 50 14.3348 50H31.2063C31.6108 50 31.9387 49.6721 31.9387 49.2676C31.9387 48.8631 31.6108 48.5352 31.2063 48.5352H14.3347C12.8115 48.5352 11.5723 47.296 11.5723 45.7728V43.3105H38.4278V45.7728C38.4278 47.2959 37.1886 48.5352 35.6653 48.5352H34.624C34.2195 48.5352 33.8916 48.8631 33.8916 49.2676C33.8916 49.6721 34.2195 50 34.624 50H35.6653C37.9962 50 39.8926 48.1037 39.8926 45.7728V42.5781V4.22725C39.8926 1.89629 37.9963 0 35.6653 0V0Z" fill="#1A1A1A"/>
<path d="M22.8027 45.2202C22.3982 45.2202 22.0703 45.5481 22.0703 45.9526C22.0703 46.3571 22.3982 46.6851 22.8027 46.6851H27.1973C27.6018 46.6851 27.9297 46.3571 27.9297 45.9526C27.9297 45.5481 27.6018 45.2202 27.1973 45.2202H22.8027Z" fill="#1A1A1A"/>
<path d="M22.7051 17.741H27.2949C27.9681 17.741 28.5156 17.1934 28.5156 16.5203V11.9304C28.5156 11.2573 27.9681 10.7097 27.2949 10.7097H22.7051C22.0319 10.7097 21.4844 11.2573 21.4844 11.9304V16.5203C21.4844 17.1933 22.0319 17.741 22.7051 17.741ZM22.9492 12.1746H27.0508V16.2761H22.9492V12.1746Z" fill="#1A1A1A"/>
<path d="M14.4004 17.741H18.9902C19.6634 17.741 20.2109 17.1934 20.2109 16.5203V11.9304C20.2109 11.2573 19.6634 10.7097 18.9902 10.7097H14.4004C13.7272 10.7097 13.1797 11.2573 13.1797 11.9304V16.5203C13.1797 17.1933 13.7273 17.741 14.4004 17.741ZM14.6445 12.1746H18.7461V16.2761H14.6445V12.1746Z" fill="#1A1A1A"/>
<path d="M31.0098 17.741H35.5996C36.2727 17.741 36.8203 17.1934 36.8203 16.5203V11.9304C36.8203 11.2573 36.2727 10.7097 35.5996 10.7097H31.0098C30.3366 10.7097 29.7891 11.2573 29.7891 11.9304V16.5203C29.7891 17.1933 30.3366 17.741 31.0098 17.741ZM31.2539 12.1746H35.3555V16.2761H31.2539V12.1746Z" fill="#1A1A1A"/>
<path d="M21.4844 25.655C21.4844 26.3282 22.0319 26.8757 22.7051 26.8757H27.2949C27.9681 26.8757 28.5156 26.3282 28.5156 25.655V21.0652C28.5156 20.392 27.9681 19.8445 27.2949 19.8445H22.7051C22.0319 19.8445 21.4844 20.392 21.4844 21.0652V25.655ZM22.9492 21.3093H27.0508V25.4109H22.9492V21.3093Z" fill="#1A1A1A"/>
<path d="M13.1797 25.655C13.1797 26.3282 13.7272 26.8757 14.4004 26.8757H18.9902C19.6634 26.8757 20.2109 26.3282 20.2109 25.655V21.0652C20.2109 20.392 19.6634 19.8445 18.9902 19.8445H14.4004C13.7272 19.8445 13.1797 20.392 13.1797 21.0652V25.655ZM14.6445 21.3093H18.7461V25.4109H14.6445V21.3093Z" fill="#1A1A1A"/>
<path d="M29.7891 25.655C29.7891 26.3282 30.3366 26.8757 31.0098 26.8757H35.5996C36.2727 26.8757 36.8203 26.3282 36.8203 25.655V21.0652C36.8203 20.392 36.2727 19.8445 35.5996 19.8445H31.0098C30.3366 19.8445 29.7891 20.392 29.7891 21.0652V25.655ZM31.2539 21.3093H35.3555V25.4109H31.2539V21.3093Z" fill="#1A1A1A"/>
</g>
<defs>
<clipPath id="clip0">
<rect width="50" height="50" fill="white"/>
</clipPath>
</defs>
</svg>
