<svg width="50" height="50" viewBox="0 0 50 50" fill="none" xmlns="http://www.w3.org/2000/svg">
<path d="M46.4844 3.125H3.51562C2.79067 3.1258 2.09564 3.41414 1.58301 3.92676C1.07039 4.43939 0.782051 5.13442 0.78125 5.85938V37.1094C0.782051 37.8343 1.07039 38.5294 1.58301 39.042C2.09564 39.5546 2.79067 39.8429 3.51562 39.8438H19.2285L18.1865 42.9688H16.4062C16.199 42.9688 16.0003 43.0511 15.8538 43.1976C15.7073 43.3441 15.625 43.5428 15.625 43.75V45.3125H10.1562C9.94905 45.3125 9.75033 45.3948 9.60382 45.5413C9.45731 45.6878 9.375 45.8866 9.375 46.0938C9.375 46.3009 9.45731 46.4997 9.60382 46.6462C9.75033 46.7927 9.94905 46.875 10.1562 46.875H36.7187C36.9259 46.875 37.1247 46.7927 37.2712 46.6462C37.4177 46.4997 37.5 46.3009 37.5 46.0938C37.5 45.8866 37.4177 45.6878 37.2712 45.5413C37.1247 45.3948 36.9259 45.3125 36.7187 45.3125H34.375V43.75C34.375 43.5428 34.2927 43.3441 34.1462 43.1976C33.9997 43.0511 33.8009 42.9688 33.5937 42.9688H31.8135L30.7715 39.8438H46.4844C47.2093 39.8429 47.9044 39.5546 48.417 39.042C48.9296 38.5294 49.2179 37.8343 49.2187 37.1094V5.85938C49.2179 5.13442 48.9296 4.43939 48.417 3.92676C47.9044 3.41414 47.2093 3.1258 46.4844 3.125ZM32.8125 44.5312V45.3125H17.1875V44.5312H32.8125ZM19.834 42.9688L20.876 39.8438H29.124L30.166 42.9688H19.834ZM47.6562 37.1094C47.656 37.4201 47.5324 37.718 47.3127 37.9377C47.093 38.1574 46.7951 38.281 46.4844 38.2812H3.51562C3.2049 38.281 2.90698 38.1574 2.68727 37.9377C2.46756 37.718 2.34401 37.4201 2.34375 37.1094V35.9375H47.6562V37.1094ZM47.6562 34.375H2.34375V5.85938C2.34401 5.54865 2.46756 5.25073 2.68727 5.03102C2.90698 4.81131 3.2049 4.68776 3.51562 4.6875H46.4844C46.7951 4.68776 47.093 4.81131 47.3127 5.03102C47.5324 5.25073 47.656 5.54865 47.6562 5.85938V34.375Z" fill="#1A1A1A"/>
<path d="M39.8437 45.3125H39.0625C38.8553 45.3125 38.6566 45.3948 38.5101 45.5413C38.3636 45.6878 38.2812 45.8865 38.2812 46.0938C38.2812 46.301 38.3636 46.4997 38.5101 46.6462C38.6566 46.7927 38.8553 46.875 39.0625 46.875H39.8437C40.0509 46.875 40.2497 46.7927 40.3962 46.6462C40.5427 46.4997 40.625 46.301 40.625 46.0938C40.625 45.8865 40.5427 45.6878 40.3962 45.5413C40.2497 45.3948 40.0509 45.3125 39.8437 45.3125Z" fill="#1A1A1A"/>
<path d="M6.24905 23.4376C6.79286 23.4369 7.31954 23.2473 7.73912 22.9014C8.15871 22.5554 8.44516 22.0745 8.54954 21.5408L16.7535 16.0715C16.9742 16.4307 17.2877 16.7237 17.661 16.9196C18.0343 17.1155 18.4536 17.207 18.8746 17.1845C19.2955 17.162 19.7026 17.0263 20.0529 16.7918C20.4032 16.5572 20.6837 16.2325 20.8649 15.8518L28.9801 18.5569C29.1142 19.0737 29.4208 19.5292 29.849 19.848C30.2772 20.1669 30.8015 20.33 31.3351 20.3103C31.8686 20.2906 32.3795 20.0894 32.7831 19.7399C33.1867 19.3903 33.4588 18.9135 33.5545 18.3882L42.1945 11.9082C42.6072 12.2735 43.1356 12.4813 43.6865 12.4951C44.2375 12.5089 44.7756 12.3278 45.2061 11.9837C45.6366 11.6396 45.9318 11.1545 46.0397 10.6141C46.1476 10.0736 46.0613 9.51239 45.7959 9.02935C45.5305 8.54632 45.1031 8.17246 44.5891 7.97367C44.0751 7.77488 43.5074 7.76392 42.9861 7.94271C42.4647 8.12151 42.0233 8.47858 41.7394 8.95101C41.4556 9.42343 41.3477 9.98088 41.4346 10.5251L33.2126 16.6915C32.9858 16.3422 32.6698 16.0597 32.2974 15.8732C31.925 15.6866 31.5096 15.6028 31.094 15.6302C30.6784 15.6577 30.2777 15.7954 29.933 16.0294C29.5884 16.2633 29.3124 16.5849 29.1334 16.961L21.0182 14.2559C20.8848 13.7413 20.5804 13.2874 20.155 12.9686C19.7296 12.6498 19.2085 12.485 18.6772 12.5014C18.1458 12.5178 17.6358 12.7144 17.2309 13.0588C16.826 13.4032 16.5502 13.8751 16.4488 14.3969L8.24456 19.8662C8.03048 19.5181 7.72909 19.232 7.37028 19.0363C7.01147 18.8406 6.60773 18.7421 6.19911 18.7506C5.7905 18.7592 5.39121 18.8744 5.04089 19.0849C4.69056 19.2954 4.40138 19.5939 4.20202 19.9507C4.00267 20.3074 3.90008 20.7102 3.90443 21.1188C3.90878 21.5275 4.01993 21.928 4.22685 22.2804C4.43376 22.6329 4.72924 22.9251 5.08397 23.1281C5.4387 23.3311 5.84035 23.4378 6.24905 23.4376ZM43.7491 9.37511C43.9036 9.37511 44.0546 9.42093 44.1831 9.50678C44.3116 9.59262 44.4117 9.71464 44.4708 9.85739C44.53 10.0001 44.5454 10.1572 44.5153 10.3088C44.4851 10.4603 44.4107 10.5995 44.3015 10.7088C44.1922 10.8181 44.053 10.8925 43.9015 10.9226C43.7499 10.9527 43.5928 10.9373 43.4501 10.8781C43.3073 10.819 43.1853 10.7189 43.0995 10.5904C43.0136 10.4619 42.9678 10.3109 42.9678 10.1564C42.968 9.94923 43.0504 9.75066 43.1969 9.60419C43.3433 9.45773 43.5419 9.37535 43.7491 9.37511ZM31.2491 17.1876C31.4036 17.1876 31.5546 17.2334 31.6831 17.3193C31.8116 17.4051 31.9117 17.5271 31.9708 17.6699C32.03 17.8127 32.0454 17.9697 32.0153 18.1213C31.9851 18.2728 31.9107 18.412 31.8015 18.5213C31.6922 18.6306 31.553 18.705 31.4015 18.7351C31.2499 18.7653 31.0928 18.7498 30.9501 18.6906C30.8073 18.6315 30.6853 18.5314 30.5995 18.4029C30.5136 18.2744 30.4678 18.1234 30.4678 17.9689C30.468 17.7617 30.5504 17.5632 30.6969 17.4167C30.8433 17.2702 31.0419 17.1878 31.2491 17.1876ZM18.7491 14.0626C18.9036 14.0626 19.0546 14.1084 19.1831 14.1943C19.3116 14.2801 19.4117 14.4021 19.4708 14.5449C19.53 14.6876 19.5454 14.8447 19.5153 14.9963C19.4851 15.1478 19.4107 15.287 19.3015 15.3963C19.1922 15.5056 19.053 15.58 18.9015 15.6101C18.7499 15.6402 18.5928 15.6248 18.4501 15.5656C18.3073 15.5065 18.1853 15.4064 18.0995 15.2779C18.0136 15.1494 17.9678 14.9984 17.9678 14.8439C17.968 14.6367 18.0504 14.4382 18.1969 14.2917C18.3433 14.1452 18.5419 14.0628 18.7491 14.0626ZM6.24905 20.3126C6.40357 20.3126 6.55462 20.3584 6.68309 20.4443C6.81157 20.5301 6.9117 20.6521 6.97083 20.7949C7.02997 20.9377 7.04544 21.0947 7.01529 21.2463C6.98515 21.3978 6.91074 21.537 6.80148 21.6463C6.69222 21.7556 6.55302 21.83 6.40147 21.8601C6.24992 21.8903 6.09284 21.8748 5.95008 21.8156C5.80733 21.7565 5.68531 21.6564 5.59947 21.5279C5.51362 21.3994 5.4678 21.2484 5.4678 21.0939C5.46804 20.8867 5.55042 20.6882 5.69688 20.5417C5.84335 20.3952 6.04192 20.3128 6.24905 20.3126Z" fill="#1A1A1A"/>
<path d="M4.6875 32.0312H45.3125C45.5197 32.0312 45.7184 31.9489 45.8649 31.8024C46.0114 31.6559 46.0938 31.4572 46.0938 31.25C46.0938 31.0428 46.0114 30.8441 45.8649 30.6976C45.7184 30.5511 45.5197 30.4688 45.3125 30.4688H44.5312V14.0625C44.5312 13.8553 44.4489 13.6566 44.3024 13.5101C44.1559 13.3636 43.9572 13.2812 43.75 13.2812C43.5428 13.2812 43.3441 13.3636 43.1976 13.5101C43.0511 13.6566 42.9688 13.8553 42.9688 14.0625V30.4688H38.2812V25.7812C38.2812 25.574 38.1989 25.3753 38.0524 25.2288C37.9059 25.0823 37.7072 25 37.5 25C37.2928 25 37.0941 25.0823 36.9476 25.2288C36.8011 25.3753 36.7188 25.574 36.7188 25.7812V30.4688H32.0312V22.6562C32.0312 22.449 31.9489 22.2503 31.8024 22.1038C31.6559 21.9573 31.4572 21.875 31.25 21.875C31.0428 21.875 30.8441 21.9573 30.6976 22.1038C30.5511 22.2503 30.4688 22.449 30.4688 22.6562V30.4688H25.7812V25.7812C25.7812 25.574 25.6989 25.3753 25.5524 25.2288C25.4059 25.0823 25.2072 25 25 25C24.7928 25 24.5941 25.0823 24.4476 25.2288C24.3011 25.3753 24.2188 25.574 24.2188 25.7812V30.4688H19.5312V19.5312C19.5312 19.324 19.4489 19.1253 19.3024 18.9788C19.1559 18.8323 18.9572 18.75 18.75 18.75C18.5428 18.75 18.3441 18.8323 18.1976 18.9788C18.0511 19.1253 17.9688 19.324 17.9688 19.5312V30.4688H13.2812V25.7812C13.2812 25.574 13.1989 25.3753 13.0524 25.2288C12.9059 25.0823 12.7072 25 12.5 25C12.2928 25 12.0941 25.0823 11.9476 25.2288C11.8011 25.3753 11.7188 25.574 11.7188 25.7812V30.4688H7.03125V25.7812C7.03125 25.574 6.94894 25.3753 6.80243 25.2288C6.65591 25.0823 6.4572 25 6.25 25C6.0428 25 5.84409 25.0823 5.69757 25.2288C5.55106 25.3753 5.46875 25.574 5.46875 25.7812V30.4688H4.6875C4.4803 30.4688 4.28159 30.5511 4.13507 30.6976C3.98856 30.8441 3.90625 31.0428 3.90625 31.25C3.90625 31.4572 3.98856 31.6559 4.13507 31.8024C4.28159 31.9489 4.4803 32.0312 4.6875 32.0312Z" fill="#1A1A1A"/>
</svg>
